<svg width="210" height="201" viewBox="0 0 210 201" fill="none" xmlns="http://www.w3.org/2000/svg">
<g filter="url(#filter0_b_356_13)">
<rect x="13" width="185" height="183" rx="9" fill="#242A2A"/>
</g>
<g filter="url(#filter1_d_356_13)">
<path d="M66.6852 90.0163L63.3767 86.958L72.2785 67.8637L77.0162 68.5565L81.973 70.5304L81.6555 71.5615L84.4072 73.0128L84.4174 73.6913L83.8911 74.1197L81.2091 72.8693L80.8815 73.2219L80.8916 73.9004L83.5737 75.1507L83.5839 75.8292L83.0577 76.2577L80.3756 75.0073L79.8494 75.4357L79.8596 76.1142L82.472 77.1637L82.4822 77.8422L81.956 78.2706L79.2739 77.0202L78.8173 77.6495L78.8275 78.328L81.7081 79.5026L81.6487 79.9802L81.3211 80.3328L78.3114 79.435L77.9838 79.7875L78.134 80.3106L80.5369 81.3146L80.6652 81.8894L80.1389 82.3178L77.4083 81.3721L76.8125 81.5996L76.8227 82.2781L79.5048 83.5285L79.515 84.207L79.0299 84.463L76.3583 83.5341L76.0486 83.9385L75.9892 84.4161L78.6713 85.6665L78.6815 86.345L78.0857 86.5725L75.2746 85.5989L75.0403 85.9866L74.9571 86.6299L77.6392 87.8803L77.6494 88.5588L77.0536 88.7863L74.3715 87.536L74.0439 87.8885L74.0541 88.567L76.7361 89.8174L76.8159 90.6968L76.0911 91.2011L73.2698 89.5489L72.9422 89.9015L73.022 90.7809L75.704 92.0312L75.7142 92.7097L75.188 93.1382L72.4363 91.6869L71.6521 92.6688L69.0396 91.6193L66.6852 90.0163Z" stroke="#FFF2F2"/>
<path d="M67.6782 89.6371L77.1656 69.6367L80.3841 71.1372L71.0953 91.0617L67.6782 89.6371Z" stroke="#FFF2F2"/>
<path d="M75.8017 69.2009L66.933 88.7844L64.4393 86.7797L72.825 68.7922L75.7569 69.2999" stroke="#FFF2F2"/>
</g>
<path d="M59.5908 40.2441C58.6875 40.2441 57.8615 40.0163 57.1128 39.5605C56.3722 39.1048 55.7822 38.4945 55.3428 37.7295C54.9115 36.9564 54.6958 36.0978 54.6958 35.1538L54.7202 27.3535C54.7202 26.4258 54.9318 25.5876 55.355 24.8389C55.7782 24.082 56.36 23.4757 57.1006 23.02C57.8493 22.5562 58.6794 22.3242 59.5908 22.3242C60.5186 22.3242 61.3446 22.548 62.0688 22.9956C62.8013 23.4432 63.3831 24.0495 63.8145 24.8145C64.2539 25.5713 64.4736 26.4176 64.4736 27.3535V28.501C64.4736 28.5661 64.4411 28.5986 64.376 28.5986H61.5684C61.5033 28.5986 61.4707 28.5661 61.4707 28.501V27.3535C61.4707 26.8001 61.2917 26.3241 60.9336 25.9253C60.5755 25.5265 60.1279 25.3271 59.5908 25.3271C58.9967 25.3271 58.541 25.5306 58.2236 25.9375C57.9062 26.3444 57.7476 26.8164 57.7476 27.3535V35.1538C57.7476 35.7642 57.9266 36.2646 58.2847 36.6553C58.6427 37.0378 59.0781 37.229 59.5908 37.229C60.1279 37.229 60.5755 37.0174 60.9336 36.5942C61.2917 36.1629 61.4707 35.6828 61.4707 35.1538V33.9941C61.4707 33.929 61.5033 33.8965 61.5684 33.8965H64.4004C64.4655 33.8965 64.498 33.929 64.498 33.9941V35.1538C64.498 36.0897 64.2783 36.9442 63.8389 37.7173C63.3913 38.4823 62.8013 39.0967 62.0688 39.5605C61.3364 40.0163 60.5104 40.2441 59.5908 40.2441ZM76.9956 40H68.9146C68.8494 40 68.8169 39.9593 68.8169 39.8779L68.8413 22.7271C68.8413 22.6457 68.882 22.605 68.9634 22.605H71.7466C71.828 22.605 71.8687 22.6457 71.8687 22.7271L71.8442 36.9238H76.9956C77.077 36.9238 77.1177 36.9645 77.1177 37.0459V39.8779C77.1177 39.9593 77.077 40 76.9956 40ZM89.4321 40H81.3511C81.286 40 81.2534 39.9593 81.2534 39.8779L81.2778 22.7026C81.2778 22.6375 81.3104 22.605 81.3755 22.605H89.4077C89.4728 22.605 89.5054 22.6457 89.5054 22.7271V25.5225C89.5054 25.5876 89.4728 25.6201 89.4077 25.6201H84.2808V29.5264H89.4077C89.4728 29.5264 89.5054 29.5589 89.5054 29.624L89.5298 32.4561C89.5298 32.5212 89.4972 32.5537 89.4321 32.5537H84.2808V36.9238H89.4321C89.4972 36.9238 89.5298 36.9645 89.5298 37.0459V39.9023C89.5298 39.9674 89.4972 40 89.4321 40ZM93.4092 39.8779L96.5098 22.7026C96.526 22.6375 96.5667 22.605 96.6318 22.605H100.257C100.322 22.605 100.363 22.6375 100.379 22.7026L103.358 39.8779C103.366 39.9593 103.333 40 103.26 40H100.489C100.408 40 100.363 39.9593 100.355 39.8779L100.086 38.0469H96.6807L96.4121 39.8779C96.404 39.9593 96.3633 40 96.29 40H93.5068C93.4417 40 93.4092 39.9593 93.4092 39.8779ZM98.3042 28.3545L97.1812 35.3735H99.5859L98.5605 28.3545L98.4141 27.4268L98.3042 28.3545ZM110.143 40H107.64C107.51 40 107.445 39.943 107.445 39.8291L107.42 22.8003C107.42 22.6701 107.486 22.605 107.616 22.605H109.874L114.098 32.4561L113.976 22.8003C113.976 22.6701 114.049 22.605 114.195 22.605H116.673C116.771 22.605 116.82 22.6701 116.82 22.8003L116.844 39.8535C116.844 39.9512 116.804 40 116.722 40H114.525L110.191 30.7959L110.375 39.8047C110.375 39.9349 110.297 40 110.143 40ZM124.471 40H121.639C121.558 40 121.517 39.9593 121.517 39.8779L121.542 22.7026C121.542 22.6375 121.574 22.605 121.639 22.605H124.447C124.512 22.605 124.544 22.6375 124.544 22.7026L124.569 39.8779C124.569 39.9593 124.536 40 124.471 40ZM131.988 40H129.486C129.356 40 129.291 39.943 129.291 39.8291L129.266 22.8003C129.266 22.6701 129.331 22.605 129.461 22.605H131.72L135.943 32.4561L135.821 22.8003C135.821 22.6701 135.895 22.605 136.041 22.605H138.519C138.617 22.605 138.666 22.6701 138.666 22.8003L138.69 39.8535C138.69 39.9512 138.649 40 138.568 40H136.371L132.037 30.7959L132.22 39.8047C132.22 39.9349 132.143 40 131.988 40ZM147.94 40.2441C147.037 40.2441 146.223 40.0203 145.499 39.5728C144.767 39.1252 144.177 38.5229 143.729 37.7661C143.29 37.0093 143.07 36.1629 143.07 35.2271V27.3047C143.07 26.3932 143.294 25.5632 143.741 24.8145C144.181 24.0576 144.771 23.4554 145.511 23.0078C146.252 22.5521 147.062 22.3242 147.94 22.3242C148.86 22.3242 149.69 22.5439 150.431 22.9834C151.171 23.431 151.757 24.0291 152.188 24.7778C152.628 25.5265 152.848 26.3688 152.848 27.3047V28.4521C152.848 28.5173 152.807 28.5498 152.726 28.5498H149.918C149.853 28.5498 149.82 28.5173 149.82 28.4521V27.5C149.82 26.8652 149.641 26.3403 149.283 25.9253C148.925 25.5103 148.478 25.3027 147.94 25.3027C147.46 25.3027 147.033 25.5021 146.659 25.9009C146.284 26.2996 146.097 26.7676 146.097 27.3047V35.2271C146.097 35.7723 146.28 36.2443 146.646 36.6431C147.013 37.0337 147.444 37.229 147.94 37.229C148.478 37.229 148.925 37.0378 149.283 36.6553C149.641 36.2646 149.82 35.7886 149.82 35.2271V33.9941H148.075C147.985 33.9941 147.94 33.9535 147.94 33.8721V31.0767C147.94 30.9953 147.985 30.9546 148.075 30.9546H152.75C152.815 30.9546 152.848 30.9953 152.848 31.0767V35.2271C152.848 36.1629 152.628 37.0093 152.188 37.7661C151.741 38.5229 151.151 39.1252 150.418 39.5728C149.686 40.0203 148.86 40.2441 147.94 40.2441Z" fill="white"/>
<g filter="url(#filter2_d_356_13)">
<rect x="72" y="173" width="67" height="20" rx="3" fill="#DDDDDD"/>
</g>
<path d="M78.0972 186H77.311C77.2882 186 77.2769 185.989 77.2769 185.966L77.2905 181.157C77.2905 181.139 77.2996 181.129 77.3179 181.129H78.6646C79.0929 181.129 79.4313 181.26 79.6797 181.522C79.9303 181.782 80.0557 182.137 80.0557 182.585C80.0557 182.914 79.9907 183.2 79.8608 183.443C79.7287 183.685 79.5578 183.872 79.3481 184.004C79.1385 184.136 78.9106 184.202 78.6646 184.202H78.1313V185.966C78.1313 185.989 78.12 186 78.0972 186ZM78.6646 181.96L78.1313 181.967V183.354H78.6646C78.8127 183.354 78.9414 183.284 79.0508 183.143C79.1602 182.999 79.2148 182.813 79.2148 182.585C79.2148 182.403 79.1659 182.254 79.0679 182.138C78.9699 182.019 78.8354 181.96 78.6646 181.96ZM82.0032 186H81.2103C81.1875 186 81.1761 185.989 81.1761 185.966L81.1829 181.157C81.1829 181.139 81.192 181.129 81.2103 181.129H81.9964C82.0146 181.129 82.0237 181.139 82.0237 181.157L82.0306 185.966C82.0306 185.989 82.0215 186 82.0032 186ZM84.6344 186.068C84.3814 186.068 84.1502 186.005 83.9405 185.877C83.7332 185.749 83.568 185.578 83.4449 185.364C83.3242 185.148 83.2638 184.907 83.2638 184.643L83.2706 182.459C83.2706 182.199 83.3299 181.965 83.4483 181.755C83.5668 181.543 83.7298 181.373 83.9371 181.246C84.1467 181.116 84.3792 181.051 84.6344 181.051C84.8941 181.051 85.1254 181.113 85.3282 181.239C85.5333 181.364 85.6962 181.534 85.817 181.748C85.94 181.96 86.0016 182.197 86.0016 182.459V182.78C86.0016 182.799 85.9924 182.808 85.9742 182.808H85.1881C85.1699 182.808 85.1607 182.799 85.1607 182.78V182.459C85.1607 182.304 85.1106 182.171 85.0104 182.059C84.9101 181.947 84.7848 181.892 84.6344 181.892C84.468 181.892 84.3404 181.949 84.2516 182.062C84.1627 182.176 84.1183 182.309 84.1183 182.459V184.643C84.1183 184.814 84.1684 184.954 84.2687 185.063C84.3689 185.171 84.4908 185.224 84.6344 185.224C84.7848 185.224 84.9101 185.165 85.0104 185.046C85.1106 184.926 85.1607 184.791 85.1607 184.643V184.318C85.1607 184.3 85.1699 184.291 85.1881 184.291H85.9811C85.9993 184.291 86.0084 184.3 86.0084 184.318V184.643C86.0084 184.905 85.9469 185.144 85.8238 185.361C85.6985 185.575 85.5333 185.747 85.3282 185.877C85.1231 186.005 84.8919 186.068 84.6344 186.068ZM88.038 186H87.245C87.2268 186 87.2177 185.989 87.2177 185.966L87.2313 181.164C87.2313 181.141 87.2405 181.129 87.2587 181.129H88.0448C88.0631 181.129 88.0722 181.141 88.0722 181.164V182.821L89.1693 181.157C89.1876 181.139 89.2047 181.129 89.2206 181.129H90.0238C90.0443 181.129 90.0489 181.139 90.0375 181.157L88.8275 183.088L90.1845 185.973C90.1959 185.991 90.1845 186 90.1503 186H89.2958C89.273 186 89.2593 185.991 89.2548 185.973L88.308 183.915L88.0653 184.298V185.966C88.0653 185.989 88.0562 186 88.038 186ZM95.2109 186H94.4214C94.4009 186 94.3906 185.989 94.3906 185.966V181.974H93.4814C93.4587 181.974 93.4473 181.962 93.4473 181.939L93.4541 181.157C93.4541 181.139 93.4632 181.129 93.4814 181.129H96.1406C96.1657 181.129 96.1782 181.139 96.1782 181.157V181.939C96.1782 181.962 96.1691 181.974 96.1509 181.974H95.2314L95.2383 185.966C95.2383 185.989 95.2292 186 95.2109 186ZM98.0403 186H97.2474C97.2291 186 97.22 185.989 97.22 185.966L97.2269 181.157C97.2269 181.139 97.2382 181.129 97.261 181.129H98.0403C98.0631 181.129 98.0745 181.139 98.0745 181.157L98.0677 183.061H99.117V181.157C99.117 181.139 99.1261 181.129 99.1443 181.129H99.9236C99.9464 181.129 99.9578 181.139 99.9578 181.157L99.9715 185.966C99.9715 185.989 99.9601 186 99.9373 186H99.1512C99.1284 186 99.117 185.989 99.117 185.966V183.908H98.0677V185.966C98.0677 185.989 98.0586 186 98.0403 186ZM102.069 186H101.276C101.254 186 101.242 185.989 101.242 185.966L101.249 181.157C101.249 181.139 101.258 181.129 101.276 181.129H102.063C102.081 181.129 102.09 181.139 102.09 181.157L102.097 185.966C102.097 185.989 102.088 186 102.069 186ZM104.601 186.068C104.353 186.068 104.124 186.005 103.914 185.877C103.707 185.749 103.541 185.58 103.415 185.368C103.292 185.153 103.231 184.919 103.231 184.664V184.342C103.231 184.317 103.242 184.305 103.265 184.305H104.051C104.069 184.305 104.079 184.317 104.079 184.342V184.664C104.079 184.816 104.13 184.948 104.232 185.06C104.335 185.169 104.458 185.224 104.601 185.224C104.747 185.224 104.871 185.168 104.974 185.057C105.077 184.943 105.128 184.812 105.128 184.664C105.128 184.493 105.016 184.343 104.793 184.216C104.756 184.193 104.709 184.166 104.649 184.134C104.592 184.1 104.524 184.061 104.444 184.018C104.364 183.974 104.287 183.932 104.212 183.891C104.137 183.848 104.064 183.807 103.993 183.768C103.738 183.618 103.548 183.43 103.422 183.204C103.299 182.976 103.238 182.721 103.238 182.438C103.238 182.179 103.301 181.944 103.429 181.734C103.557 181.527 103.723 181.363 103.928 181.242C104.135 181.119 104.36 181.058 104.601 181.058C104.85 181.058 105.078 181.119 105.285 181.242C105.492 181.368 105.658 181.534 105.781 181.741C105.906 181.949 105.969 182.181 105.969 182.438V183.013C105.969 183.031 105.96 183.04 105.941 183.04H105.155C105.137 183.04 105.128 183.031 105.128 183.013L105.121 182.438C105.121 182.274 105.07 182.141 104.967 182.039C104.865 181.936 104.743 181.885 104.601 181.885C104.458 181.885 104.335 181.939 104.232 182.049C104.13 182.158 104.079 182.288 104.079 182.438C104.079 182.591 104.11 182.719 104.174 182.821C104.24 182.924 104.36 183.022 104.533 183.115C104.551 183.124 104.593 183.147 104.66 183.184C104.726 183.22 104.799 183.261 104.878 183.307C104.96 183.35 105.034 183.39 105.1 183.426C105.167 183.46 105.206 183.481 105.22 183.488C105.453 183.618 105.636 183.777 105.77 183.966C105.907 184.155 105.975 184.388 105.975 184.664C105.975 184.93 105.914 185.169 105.791 185.381C105.666 185.593 105.499 185.761 105.292 185.884C105.085 186.007 104.854 186.068 104.601 186.068ZM110.869 186.068C110.62 186.068 110.391 186.005 110.182 185.877C109.974 185.749 109.808 185.58 109.683 185.368C109.56 185.153 109.498 184.919 109.498 184.664V184.342C109.498 184.317 109.509 184.305 109.532 184.305H110.318C110.337 184.305 110.346 184.317 110.346 184.342V184.664C110.346 184.816 110.397 184.948 110.5 185.06C110.602 185.169 110.725 185.224 110.869 185.224C111.014 185.224 111.139 185.168 111.241 185.057C111.344 184.943 111.395 184.812 111.395 184.664C111.395 184.493 111.283 184.343 111.06 184.216C111.024 184.193 110.976 184.166 110.917 184.134C110.86 184.1 110.791 184.061 110.711 184.018C110.632 183.974 110.554 183.932 110.479 183.891C110.404 183.848 110.331 183.807 110.26 183.768C110.005 183.618 109.815 183.43 109.689 183.204C109.566 182.976 109.505 182.721 109.505 182.438C109.505 182.179 109.569 181.944 109.696 181.734C109.824 181.527 109.99 181.363 110.195 181.242C110.403 181.119 110.627 181.058 110.869 181.058C111.117 181.058 111.345 181.119 111.552 181.242C111.76 181.368 111.925 181.534 112.048 181.741C112.173 181.949 112.236 182.181 112.236 182.438V183.013C112.236 183.031 112.227 183.04 112.208 183.04H111.422C111.404 183.04 111.395 183.031 111.395 183.013L111.388 182.438C111.388 182.274 111.337 182.141 111.234 182.039C111.132 181.936 111.01 181.885 110.869 181.885C110.725 181.885 110.602 181.939 110.5 182.049C110.397 182.158 110.346 182.288 110.346 182.438C110.346 182.591 110.378 182.719 110.441 182.821C110.507 182.924 110.627 183.022 110.8 183.115C110.819 183.124 110.861 183.147 110.927 183.184C110.993 183.22 111.066 183.261 111.146 183.307C111.228 183.35 111.302 183.39 111.368 183.426C111.434 183.46 111.474 183.481 111.487 183.488C111.72 183.618 111.903 183.777 112.038 183.966C112.174 184.155 112.243 184.388 112.243 184.664C112.243 184.93 112.181 185.169 112.058 185.381C111.933 185.593 111.766 185.761 111.559 185.884C111.352 186.007 111.122 186.068 110.869 186.068ZM115.718 186H113.455C113.437 186 113.428 185.989 113.428 185.966L113.435 181.157C113.435 181.139 113.444 181.129 113.462 181.129H115.711C115.729 181.129 115.739 181.141 115.739 181.164V181.946C115.739 181.965 115.729 181.974 115.711 181.974H114.276V183.067H115.711C115.729 183.067 115.739 183.076 115.739 183.095L115.745 183.888C115.745 183.906 115.736 183.915 115.718 183.915H114.276V185.139H115.718C115.736 185.139 115.745 185.15 115.745 185.173V185.973C115.745 185.991 115.736 186 115.718 186ZM117.888 186H117.095C117.077 186 117.067 185.989 117.067 185.966L117.081 181.157C117.081 181.139 117.09 181.129 117.108 181.129H118.524C118.776 181.129 119.009 181.191 119.221 181.314C119.433 181.437 119.601 181.602 119.727 181.81C119.854 182.017 119.918 182.252 119.918 182.514C119.918 182.685 119.892 182.84 119.839 182.979C119.787 183.118 119.726 183.235 119.655 183.331C119.587 183.426 119.524 183.497 119.467 183.542C119.72 183.823 119.846 184.152 119.846 184.53L119.853 185.966C119.853 185.989 119.842 186 119.819 186H119.026C119.008 186 118.999 185.993 118.999 185.979V184.53C118.999 184.362 118.939 184.216 118.821 184.093C118.702 183.97 118.557 183.908 118.383 183.908H117.922L117.915 185.966C117.915 185.989 117.906 186 117.888 186ZM118.524 181.967H117.922V183.067H118.524C118.667 183.067 118.795 183.014 118.906 182.907C119.02 182.8 119.077 182.669 119.077 182.514C119.077 182.366 119.023 182.238 118.913 182.131C118.804 182.021 118.674 181.967 118.524 181.967ZM122.566 186H121.719C121.698 186 121.687 185.989 121.684 185.966L120.717 181.157C120.713 181.139 120.722 181.129 120.745 181.129H121.537C121.556 181.129 121.567 181.139 121.572 181.157L122.146 184.363L122.706 181.157C122.711 181.139 122.722 181.129 122.741 181.129H123.523C123.548 181.129 123.558 181.139 123.551 181.157L122.6 185.966C122.598 185.989 122.587 186 122.566 186ZM125.488 186H124.695C124.672 186 124.661 185.989 124.661 185.966L124.668 181.157C124.668 181.139 124.677 181.129 124.695 181.129H125.481C125.499 181.129 125.508 181.139 125.508 181.157L125.515 185.966C125.515 185.989 125.506 186 125.488 186ZM128.119 186.068C127.866 186.068 127.635 186.005 127.425 185.877C127.218 185.749 127.053 185.578 126.93 185.364C126.809 185.148 126.749 184.907 126.749 184.643L126.755 182.459C126.755 182.199 126.815 181.965 126.933 181.755C127.052 181.543 127.215 181.373 127.422 181.246C127.632 181.116 127.864 181.051 128.119 181.051C128.379 181.051 128.61 181.113 128.813 181.239C129.018 181.364 129.181 181.534 129.302 181.748C129.425 181.96 129.486 182.197 129.486 182.459V182.78C129.486 182.799 129.477 182.808 129.459 182.808H128.673C128.655 182.808 128.646 182.799 128.646 182.78V182.459C128.646 182.304 128.595 182.171 128.495 182.059C128.395 181.947 128.27 181.892 128.119 181.892C127.953 181.892 127.825 181.949 127.736 182.062C127.647 182.176 127.603 182.309 127.603 182.459V184.643C127.603 184.814 127.653 184.954 127.753 185.063C127.854 185.171 127.976 185.224 128.119 185.224C128.27 185.224 128.395 185.165 128.495 185.046C128.595 184.926 128.646 184.791 128.646 184.643V184.318C128.646 184.3 128.655 184.291 128.673 184.291H129.466C129.484 184.291 129.493 184.3 129.493 184.318V184.643C129.493 184.905 129.432 185.144 129.309 185.361C129.183 185.575 129.018 185.747 128.813 185.877C128.608 186.005 128.377 186.068 128.119 186.068ZM132.992 186H130.73C130.712 186 130.702 185.989 130.702 185.966L130.709 181.157C130.709 181.139 130.718 181.129 130.737 181.129H132.986C133.004 181.129 133.013 181.141 133.013 181.164V181.946C133.013 181.965 133.004 181.974 132.986 181.974H131.55V183.067H132.986C133.004 183.067 133.013 183.076 133.013 183.095L133.02 183.888C133.02 183.906 133.011 183.915 132.992 183.915H131.55V185.139H132.992C133.011 185.139 133.02 185.15 133.02 185.173V185.973C133.02 185.991 133.011 186 132.992 186Z" fill="url(#paint0_linear_356_13)"/>
<ellipse cx="198" cy="95.5" rx="12" ry="11.5" fill="#DDDDDD"/>
<ellipse cx="198" cy="95.5" rx="12" ry="11.5" fill="#DDDDDD"/>
<ellipse cx="198" cy="95.5" rx="12" ry="11.5" fill="#DDDDDD"/>
<ellipse cx="12.5" cy="95.5" rx="12.5" ry="11.5" fill="#DDDDDD"/>
<ellipse cx="12.5" cy="95.5" rx="12.5" ry="11.5" fill="#DDDDDD"/>
<ellipse cx="12.5" cy="95.5" rx="12.5" ry="11.5" fill="#DDDDDD"/>
<path d="M196.534 91.2382L201.498 95.7237L196.535 100.799" stroke="black"/>
<path d="M14.4142 100.433L9.539 95.841L14.6006 90.8736" stroke="black"/>
<g filter="url(#filter3_d_356_13)">
<path d="M69.9787 106.412L71.661 98.3357L78.8707 99.2007L86.0382 96.0819L87.9959 92.663L86.8283 89.2929L86.8214 87.0059L88.7859 85.8741L100.373 89.8444L107.088 89.9516L120.629 89.3594L144.931 86.9479L149.33 87.1759L151.885 90.0164L151.549 93.5793L145.315 99.3942L135.726 105.727L107.63 116.457L82.0777 126.596L73.1621 125.803L71.754 119.472L72.6779 118.737L70.6929 113.008L69.9787 106.412Z" stroke="white" stroke-width="1.5"/>
<path d="M90.8322 112.186L82.9709 115.57L74.4159 119.219L73.1452 120.086L73.4989 122.24L74.4296 123.793L83.4483 120.349L93.5076 116.507L103.567 112.666L112.586 109.222L113.166 109.763L113.399 110.437L113.169 110.907L110.915 111.768L77.7884 124.418L76.7477 124.816L78.3687 124.96L79.1793 125.032L81.494 124.911L133.872 104.909L138.725 101.911L142.884 99.1777L147.156 95.6381L150.271 92.1589L150.154 91.8219L149.461 92.0868L144.725 95.4218L133.858 100.335L122.295 104.369L110.377 106.249L104.13 107.49L98.4635 109.272L90.8322 112.186Z" stroke="white"/>
<path d="M77.1602 107.868L73.4579 108.518L71.7236 109.181L71.9605 110.998L72.3142 113.153L73.4852 117.666L77.9945 115.944L83.4278 113.488L88.9777 111.368L93.7172 109.177L93.2502 107.829L88.3871 107.396L82.9471 107.566L77.1602 107.868Z" stroke="white"/>
<path d="M130.355 90.2241L125.502 93.2221L116.364 95.1859L106.758 95.8015L97.7287 95.8151L89.1601 94.8897L85.1615 98.7063L79.4545 100.886L74.5914 100.453L72.5068 100.105L71.9366 102.993L71.7167 106.893L75.0721 106.375L81.2059 105.941L88.9607 105.651L94.8644 105.686L95.4482 107.371L95.4515 108.514L101.465 106.599L107.942 104.889L112.455 104.31L122.868 102.623L132.233 99.0467L140.905 95.735L144.257 94.0733L147.029 91.8701L149.223 90.2688L148.873 89.2578L147.019 88.4396L143.083 88.4162L138.743 88.9286L134.404 89.441L130.355 90.2241Z" stroke="white"/>
<path d="M104.553 93.9723L105.357 91.7573L103.265 91.2262L100.957 91.5294L100.311 92.3541L99.8066 93.8768L102.189 94.1119L104.553 93.9723Z" stroke="white"/>
<path d="M111.15 93.7424L112.071 91.8645L109.653 91.6598L106.861 91.5645L106.401 92.5034L106.404 93.6469L107.331 94.056L108.836 93.8632L111.15 93.7424Z" stroke="white"/>
<path d="M118.208 92.5736L118.321 91.7671L116.41 91.4249L113.618 91.3296L113.115 92.6106L113.348 93.2846L116.474 93.2359L118.208 92.5736Z" stroke="white"/>
<path d="M123.875 90.7911L120.519 91.3093L119.712 92.3808L120.986 92.6574L121.68 92.3925L122.837 92.3321L124.342 92.1392L125.729 91.6094L125.843 90.8029L123.875 90.7911Z" stroke="white"/>
<path d="M93.0665 90.5048L91.8115 91.2059L90.8876 91.9404L90.5442 93.2163L92.2819 93.6974L94.2498 93.7092L97.8387 93.865L98.8759 92.3242L98.8725 91.1806L95.9774 90.7599L93.0665 90.5048Z" stroke="white"/>
<path d="M88.2157 88.7629L88.5591 87.4868L90.1802 87.6312L91.5711 88.2448L92.962 88.8584L92.0381 89.5929L90.5339 89.7856L89.4967 91.3267L88.2157 88.7629Z" stroke="white"/>
</g>
<path d="M70.2197 46.7793C70.2197 46.3675 70.3027 46.0436 70.4688 45.8076C70.6348 45.57 70.8708 45.4512 71.1768 45.4512C71.5495 45.4512 71.8018 45.5985 71.9336 45.8931V44.4014H72.2827V48H72.0044L71.958 47.5801C71.8945 47.7266 71.7928 47.8429 71.6528 47.9292C71.5145 48.0155 71.359 48.0586 71.1865 48.0586C70.887 48.0586 70.651 47.9422 70.4785 47.7095C70.306 47.4751 70.2197 47.165 70.2197 46.7793ZM71.2305 47.8022C71.3037 47.8022 71.3696 47.7965 71.4282 47.7852C71.4868 47.7721 71.5503 47.7453 71.6187 47.7046C71.687 47.6623 71.744 47.6061 71.7896 47.5361C71.8351 47.4645 71.8726 47.3644 71.9019 47.2358C71.9328 47.1073 71.9482 46.9559 71.9482 46.7817C71.9482 46.5701 71.9246 46.3862 71.8774 46.23C71.8319 46.0737 71.7537 45.9476 71.6431 45.8516C71.5324 45.7539 71.3932 45.7051 71.2256 45.7051C71.0189 45.7051 70.8586 45.8035 70.7446 46.0005C70.6307 46.1958 70.5737 46.4587 70.5737 46.7891C70.5737 47.0853 70.6323 47.3286 70.7495 47.519C70.8667 47.7078 71.027 47.8022 71.2305 47.8022ZM73.9014 45.4512C74.0706 45.4512 74.2196 45.4813 74.3481 45.5415C74.4784 45.6001 74.5825 45.6831 74.6606 45.7905C74.7388 45.8963 74.7974 46.0192 74.8364 46.1592C74.8755 46.2992 74.895 46.4538 74.895 46.623C74.895 46.6784 74.8926 46.7272 74.8877 46.7695H73.1812C73.1812 46.9111 73.195 47.043 73.2227 47.165C73.2503 47.2855 73.2918 47.3945 73.3472 47.4922C73.4041 47.5882 73.4806 47.6639 73.5767 47.7192C73.6743 47.7746 73.7866 47.8022 73.9136 47.8022C74.078 47.8022 74.2131 47.7648 74.3188 47.6899C74.4246 47.6134 74.4995 47.5068 74.5435 47.3701L74.812 47.4287C74.7746 47.5671 74.7087 47.6851 74.6143 47.7827C74.5199 47.8787 74.4141 47.9487 74.2969 47.9927C74.1797 48.035 74.0552 48.057 73.9233 48.0586H73.9136C73.7297 48.0586 73.5661 48.0228 73.4229 47.9512C73.2812 47.8796 73.1673 47.7827 73.0811 47.6606C72.9964 47.5369 72.9329 47.3986 72.8906 47.2456C72.8483 47.091 72.8271 46.9258 72.8271 46.75C72.8271 46.361 72.9215 46.0477 73.1104 45.8101C73.3008 45.5708 73.5645 45.4512 73.9014 45.4512ZM74.5605 46.5425C74.5589 46.2756 74.5036 46.0688 74.3945 45.9224C74.2855 45.7759 74.1178 45.7026 73.8916 45.7026C73.7826 45.7026 73.6849 45.7246 73.5986 45.7686C73.5124 45.8125 73.4408 45.8735 73.3838 45.9517C73.3285 46.0298 73.2845 46.1185 73.252 46.2178C73.2194 46.3171 73.1982 46.4253 73.1885 46.5425H74.5605ZM76.4111 45.4512C76.5804 45.4512 76.7293 45.4813 76.8579 45.5415C76.9881 45.6001 77.0923 45.6831 77.1704 45.7905C77.2485 45.8963 77.3071 46.0192 77.3462 46.1592C77.3853 46.2992 77.4048 46.4538 77.4048 46.623C77.4048 46.6784 77.4023 46.7272 77.3975 46.7695H75.6909C75.6909 46.9111 75.7048 47.043 75.7324 47.165C75.7601 47.2855 75.8016 47.3945 75.8569 47.4922C75.9139 47.5882 75.9904 47.6639 76.0864 47.7192C76.1841 47.7746 76.2964 47.8022 76.4233 47.8022C76.5877 47.8022 76.7228 47.7648 76.8286 47.6899C76.9344 47.6134 77.0093 47.5068 77.0532 47.3701L77.3218 47.4287C77.2843 47.5671 77.2184 47.6851 77.124 47.7827C77.0296 47.8787 76.9238 47.9487 76.8066 47.9927C76.6895 48.035 76.5649 48.057 76.4331 48.0586H76.4233C76.2394 48.0586 76.0758 48.0228 75.9326 47.9512C75.791 47.8796 75.6771 47.7827 75.5908 47.6606C75.5062 47.5369 75.4427 47.3986 75.4004 47.2456C75.3581 47.091 75.3369 46.9258 75.3369 46.75C75.3369 46.361 75.4313 46.0477 75.6201 45.8101C75.8105 45.5708 76.0742 45.4512 76.4111 45.4512ZM77.0703 46.5425C77.0687 46.2756 77.0133 46.0688 76.9043 45.9224C76.7952 45.7759 76.6276 45.7026 76.4014 45.7026C76.2923 45.7026 76.1947 45.7246 76.1084 45.7686C76.0221 45.8125 75.9505 45.8735 75.8936 45.9517C75.8382 46.0298 75.7943 46.1185 75.7617 46.2178C75.7292 46.3171 75.708 46.4253 75.6982 46.5425H77.0703ZM79.6362 46.728C79.6362 46.422 79.5776 46.1755 79.4604 45.9883C79.3449 45.7995 79.1862 45.7051 78.9844 45.7051C78.8656 45.7051 78.7622 45.7246 78.6743 45.7637C78.5881 45.8011 78.5197 45.8507 78.4692 45.9126C78.4204 45.9728 78.3813 46.0501 78.3521 46.1445C78.3228 46.2373 78.3032 46.3293 78.2935 46.4204C78.2853 46.5099 78.2812 46.6141 78.2812 46.7329C78.2812 47.4458 78.5164 47.8022 78.9868 47.8022C79.1886 47.8022 79.3473 47.7078 79.4629 47.519C79.5785 47.3302 79.6362 47.0666 79.6362 46.728ZM78.2397 45.5024L78.2642 45.9053C78.4253 45.6025 78.6776 45.4512 79.021 45.4512C79.1838 45.4512 79.3278 45.4845 79.4531 45.5513C79.5801 45.6164 79.6818 45.7075 79.7583 45.8247C79.8348 45.9419 79.8918 46.077 79.9292 46.23C79.9683 46.3813 79.9878 46.5482 79.9878 46.7305C79.9878 46.9844 79.9544 47.209 79.8877 47.4043C79.821 47.598 79.7152 47.755 79.5703 47.8755C79.4255 47.9959 79.248 48.057 79.0381 48.0586C78.8688 48.0586 78.7191 48.0212 78.5889 47.9463C78.4603 47.8714 78.3602 47.764 78.2886 47.624V47.9487V48.8545H77.9419V45.5024H78.2397ZM81.5381 46.7573C81.5381 46.5018 81.578 46.2772 81.6577 46.0835C81.7375 45.8898 81.8604 45.736 82.0264 45.6221C82.1924 45.5081 82.3926 45.4512 82.627 45.4512C82.7279 45.4512 82.8223 45.4634 82.9102 45.4878C82.9997 45.5122 83.0859 45.5521 83.1689 45.6074C83.2536 45.6628 83.3276 45.7417 83.3911 45.8442C83.4562 45.9468 83.505 46.0688 83.5376 46.2104L83.2471 46.2886C83.195 46.09 83.1201 45.9435 83.0225 45.8491C82.9264 45.7531 82.7995 45.7051 82.6416 45.7051C82.391 45.7051 82.203 45.7987 82.0776 45.9858C81.9539 46.1714 81.8921 46.4261 81.8921 46.75C81.8921 46.9079 81.9059 47.0495 81.9336 47.1748C81.9613 47.3001 82.0028 47.4108 82.0581 47.5068C82.1151 47.6012 82.1899 47.6745 82.2827 47.7266C82.3771 47.777 82.4862 47.8022 82.6099 47.8022C82.9338 47.8022 83.1519 47.611 83.2642 47.2285L83.5303 47.3115C83.501 47.4434 83.4538 47.5589 83.3887 47.6582C83.3252 47.7575 83.2503 47.8356 83.1641 47.8926C83.0794 47.9495 82.9899 47.991 82.8955 48.0171C82.8011 48.0448 82.7035 48.0586 82.6025 48.0586C82.2575 48.0586 81.9938 47.9406 81.8115 47.7046C81.6292 47.467 81.5381 47.1512 81.5381 46.7573ZM84.0381 48V44.4014H84.3848V48H84.0381ZM86.0352 45.4512C86.2044 45.4512 86.3534 45.4813 86.4819 45.5415C86.6121 45.6001 86.7163 45.6831 86.7944 45.7905C86.8726 45.8963 86.9312 46.0192 86.9702 46.1592C87.0093 46.2992 87.0288 46.4538 87.0288 46.623C87.0288 46.6784 87.0264 46.7272 87.0215 46.7695H85.3149C85.3149 46.9111 85.3288 47.043 85.3564 47.165C85.3841 47.2855 85.4256 47.3945 85.481 47.4922C85.5379 47.5882 85.6144 47.6639 85.7104 47.7192C85.8081 47.7746 85.9204 47.8022 86.0474 47.8022C86.2118 47.8022 86.3468 47.7648 86.4526 47.6899C86.5584 47.6134 86.6333 47.5068 86.6772 47.3701L86.9458 47.4287C86.9084 47.5671 86.8424 47.6851 86.748 47.7827C86.6536 47.8787 86.5479 47.9487 86.4307 47.9927C86.3135 48.035 86.189 48.057 86.0571 48.0586H86.0474C85.8634 48.0586 85.6999 48.0228 85.5566 47.9512C85.415 47.8796 85.3011 47.7827 85.2148 47.6606C85.1302 47.5369 85.0667 47.3986 85.0244 47.2456C84.9821 47.091 84.9609 46.9258 84.9609 46.75C84.9609 46.361 85.0553 46.0477 85.2441 45.8101C85.4346 45.5708 85.6982 45.4512 86.0352 45.4512ZM86.6943 46.5425C86.6927 46.2756 86.6374 46.0688 86.5283 45.9224C86.4193 45.7759 86.2516 45.7026 86.0254 45.7026C85.9163 45.7026 85.8187 45.7246 85.7324 45.7686C85.6462 45.8125 85.5745 45.8735 85.5176 45.9517C85.4622 46.0298 85.4183 46.1185 85.3857 46.2178C85.3532 46.3171 85.332 46.4253 85.3223 46.5425H86.6943ZM89.0674 47.4653V46.7671L88.8281 46.8037C88.6995 46.8232 88.5946 46.8411 88.5132 46.8574C88.4318 46.8721 88.3472 46.8908 88.2593 46.9136C88.1714 46.9347 88.1022 46.9583 88.0518 46.9844C88.0013 47.0088 87.9541 47.0389 87.9102 47.0747C87.8678 47.1089 87.8377 47.1488 87.8198 47.1943C87.8019 47.2399 87.793 47.2928 87.793 47.353C87.793 47.6655 87.9476 47.8218 88.2568 47.8218C88.5156 47.8218 88.7858 47.703 89.0674 47.4653ZM89.1284 48L89.0869 47.7168C88.8086 47.9447 88.5116 48.0586 88.1958 48.0586C87.9875 48.0586 87.8133 48.0016 87.6733 47.8877C87.535 47.7721 87.4658 47.6102 87.4658 47.4019C87.4658 47.314 87.4788 47.235 87.5049 47.165C87.5326 47.0934 87.5643 47.0332 87.6001 46.9844C87.6359 46.9339 87.6921 46.8883 87.7686 46.8477C87.8451 46.8053 87.9118 46.7728 87.9688 46.75C88.0273 46.7256 88.1144 46.7012 88.23 46.6768C88.3455 46.6507 88.4383 46.632 88.5083 46.6206C88.5783 46.6076 88.6841 46.5905 88.8257 46.5693L89.0674 46.5327V46.4302C89.0674 46.1584 89.0226 45.972 88.9331 45.8711C88.8436 45.7686 88.6914 45.7173 88.4766 45.7173C88.3366 45.7173 88.2048 45.7441 88.0811 45.7979C87.959 45.8516 87.8573 45.9289 87.7759 46.0298C87.7759 46.0282 87.7067 45.9622 87.5684 45.832C87.7686 45.5781 88.0778 45.4512 88.4961 45.4512C89.1081 45.4512 89.4141 45.7531 89.4141 46.3569V48H89.1284ZM90.0464 48V45.5024H90.3833C90.3833 45.522 90.3833 45.548 90.3833 45.5806C90.3833 45.6131 90.3833 45.6644 90.3833 45.7344C90.3833 45.8027 90.3833 45.8597 90.3833 45.9053V45.9736C90.4142 45.8841 90.4622 45.8052 90.5273 45.7368C90.5924 45.6668 90.6657 45.6123 90.7471 45.5732C90.8301 45.5326 90.9147 45.5024 91.001 45.4829C91.0872 45.4618 91.1727 45.4512 91.2573 45.4512C91.3534 45.4512 91.4404 45.4601 91.5186 45.478C91.5983 45.4959 91.6659 45.5228 91.7212 45.5586C91.7765 45.5928 91.8254 45.631 91.8677 45.6733C91.91 45.714 91.9442 45.7645 91.9702 45.8247C91.9963 45.8849 92.0174 45.9427 92.0337 45.998C92.0516 46.0518 92.0646 46.1152 92.0728 46.1885C92.0809 46.2617 92.0858 46.326 92.0874 46.3813C92.0907 46.4367 92.0923 46.501 92.0923 46.5742V48H91.7456V46.5278C91.7456 46.4237 91.7407 46.3325 91.731 46.2544C91.7228 46.1763 91.7065 46.103 91.6821 46.0347C91.6577 45.9663 91.6252 45.911 91.5845 45.8687C91.5454 45.8247 91.4941 45.7905 91.4307 45.7661C91.3688 45.7417 91.2948 45.7295 91.2085 45.7295C91.0832 45.7295 90.9725 45.7474 90.8765 45.7832C90.7821 45.819 90.7039 45.8678 90.6421 45.9297C90.5819 45.9915 90.533 46.068 90.4956 46.1592C90.4582 46.2503 90.4313 46.3464 90.415 46.4473C90.4004 46.5465 90.3931 46.658 90.3931 46.7817V48H90.0464ZM92.7173 44.9678V44.5308H93.0615V44.9678H92.7173ZM92.7222 48V45.5024H93.0688V48H92.7222ZM93.6987 48V45.5024H94.0356C94.0356 45.522 94.0356 45.548 94.0356 45.5806C94.0356 45.6131 94.0356 45.6644 94.0356 45.7344C94.0356 45.8027 94.0356 45.8597 94.0356 45.9053V45.9736C94.0666 45.8841 94.1146 45.8052 94.1797 45.7368C94.2448 45.6668 94.318 45.6123 94.3994 45.5732C94.4824 45.5326 94.5671 45.5024 94.6533 45.4829C94.7396 45.4618 94.825 45.4512 94.9097 45.4512C95.0057 45.4512 95.0928 45.4601 95.1709 45.478C95.2507 45.4959 95.3182 45.5228 95.3735 45.5586C95.4289 45.5928 95.4777 45.631 95.52 45.6733C95.5623 45.714 95.5965 45.7645 95.6226 45.8247C95.6486 45.8849 95.6698 45.9427 95.686 45.998C95.7039 46.0518 95.717 46.1152 95.7251 46.1885C95.7332 46.2617 95.7381 46.326 95.7397 46.3813C95.743 46.4367 95.7446 46.501 95.7446 46.5742V48H95.3979V46.5278C95.3979 46.4237 95.3931 46.3325 95.3833 46.2544C95.3752 46.1763 95.3589 46.103 95.3345 46.0347C95.3101 45.9663 95.2775 45.911 95.2368 45.8687C95.1978 45.8247 95.1465 45.7905 95.083 45.7661C95.0212 45.7417 94.9471 45.7295 94.8608 45.7295C94.7355 45.7295 94.6248 45.7474 94.5288 45.7832C94.4344 45.819 94.3563 45.8678 94.2944 45.9297C94.2342 45.9915 94.1854 46.068 94.1479 46.1592C94.1105 46.2503 94.0837 46.3464 94.0674 46.4473C94.0527 46.5465 94.0454 46.658 94.0454 46.7817V48H93.6987ZM98.0371 46.6743C98.0371 46.5148 98.02 46.3748 97.9858 46.2544C97.9517 46.1323 97.9093 46.0379 97.8589 45.9712C97.8101 45.9028 97.7507 45.8483 97.6807 45.8076C97.6123 45.7653 97.548 45.7376 97.4878 45.7246C97.4292 45.7116 97.3682 45.7051 97.3047 45.7051C97.1859 45.7051 97.0809 45.7336 96.9897 45.7905C96.8986 45.8459 96.8262 45.9215 96.7725 46.0176C96.7204 46.1136 96.6813 46.2194 96.6553 46.335C96.6292 46.4505 96.6162 46.5742 96.6162 46.7061C96.6162 47.056 96.6764 47.3262 96.7969 47.5166C96.9189 47.707 97.0841 47.8022 97.2925 47.8022C97.3657 47.8022 97.4341 47.7949 97.4976 47.7803C97.561 47.764 97.627 47.7331 97.6953 47.6875C97.7637 47.6419 97.8215 47.5825 97.8687 47.5093C97.9175 47.4344 97.9574 47.3327 97.9883 47.2041C98.0208 47.0755 98.0371 46.9266 98.0371 46.7573V46.6743ZM97.3267 49.0474C96.8937 49.0474 96.5983 48.9155 96.4404 48.6519L96.6431 48.459C96.7765 48.6738 97.0101 48.7812 97.3438 48.7812C97.5765 48.7812 97.7498 48.7072 97.8638 48.5591C97.9793 48.411 98.0371 48.2018 98.0371 47.9316V47.6826C97.8467 47.9333 97.5944 48.0586 97.2803 48.0586C96.9613 48.0586 96.7131 47.9357 96.5356 47.6899C96.3582 47.4425 96.2695 47.1178 96.2695 46.7158C96.2695 46.4701 96.3062 46.2536 96.3794 46.0664C96.4543 45.8776 96.5674 45.7279 96.7188 45.6172C96.8701 45.5065 97.0524 45.4512 97.2656 45.4512C97.5895 45.4512 97.8556 45.5757 98.064 45.8247L98.0835 45.5024H98.3618V47.9512C98.3618 48.2751 98.2723 48.5387 98.0933 48.7422C97.9159 48.9456 97.6603 49.0474 97.3267 49.0474ZM100.627 48L99.8218 45.5024H100.193L100.801 47.5679L101.072 46.7427L101.479 45.5024H101.709L102.092 46.7402L102.349 47.5654L103 45.5024H103.342L102.493 48H102.183L101.582 46.0469L100.938 48H100.627ZM103.733 44.9678V44.5308H104.077V44.9678H103.733ZM103.738 48V45.5024H104.084V48H103.738ZM105.854 47.6948L105.913 47.9219C105.791 48 105.648 48.0391 105.483 48.0391C105.269 48.0391 105.112 47.974 105.015 47.8438C104.919 47.7119 104.871 47.4995 104.871 47.2065V45.7441H104.497V45.5024H104.893V44.7041L105.217 44.6138V45.5024H105.764V45.7441H105.217V47.3628C105.217 47.6395 105.33 47.7778 105.554 47.7778C105.629 47.7778 105.729 47.7502 105.854 47.6948ZM107.446 45.7051C107.326 45.7051 107.218 45.7254 107.124 45.7661C107.031 45.8068 106.955 45.8613 106.895 45.9297C106.834 45.9964 106.785 46.0786 106.746 46.1763C106.707 46.2723 106.679 46.3732 106.663 46.479C106.648 46.5848 106.641 46.6987 106.641 46.8208V48H106.294V44.4038H106.641V45.4292V45.8955C106.831 45.5993 107.117 45.4512 107.498 45.4512C107.608 45.4512 107.708 45.4642 107.795 45.4902C107.885 45.5146 107.959 45.5472 108.018 45.5879C108.078 45.6286 108.13 45.6799 108.174 45.7417C108.218 45.8035 108.252 45.8654 108.276 45.9272C108.301 45.9891 108.32 46.0607 108.335 46.1421C108.35 46.2218 108.359 46.2943 108.362 46.3594C108.367 46.4245 108.369 46.4969 108.369 46.5767V48H108.022V46.5498C108.022 46.2715 107.979 46.0615 107.893 45.9199C107.808 45.7767 107.66 45.7051 107.446 45.7051ZM109.968 45.4512C110.289 45.4512 110.548 45.5618 110.745 45.7832C110.942 46.0029 111.04 46.3244 111.04 46.7476C111.04 47.1675 110.943 47.4914 110.75 47.7192C110.557 47.9455 110.296 48.0586 109.966 48.0586C109.635 48.0586 109.373 47.9463 109.18 47.7217C108.988 47.4954 108.892 47.1732 108.892 46.7549C108.892 46.3285 108.99 46.0046 109.187 45.7832C109.384 45.5618 109.644 45.4512 109.968 45.4512ZM109.966 45.7051C109.829 45.7051 109.712 45.7352 109.614 45.7954C109.517 45.854 109.442 45.9354 109.39 46.0396C109.339 46.1437 109.303 46.2536 109.28 46.3691C109.257 46.4847 109.246 46.6108 109.246 46.7476C109.246 46.8566 109.252 46.9591 109.265 47.0552C109.278 47.1512 109.302 47.2464 109.336 47.3408C109.37 47.4336 109.413 47.5133 109.465 47.5801C109.519 47.6468 109.588 47.7005 109.673 47.7412C109.759 47.7819 109.858 47.8022 109.968 47.8022C110.077 47.8022 110.174 47.7819 110.259 47.7412C110.345 47.7005 110.414 47.6476 110.466 47.5825C110.52 47.5158 110.564 47.436 110.598 47.3433C110.632 47.2505 110.656 47.1561 110.669 47.0601C110.682 46.964 110.688 46.8615 110.688 46.7524C110.688 46.645 110.681 46.5433 110.667 46.4473C110.653 46.3512 110.63 46.2568 110.596 46.1641C110.562 46.0713 110.518 45.9924 110.464 45.9272C110.412 45.8605 110.343 45.8068 110.256 45.7661C110.172 45.7254 110.075 45.7051 109.966 45.7051ZM113.25 46.9355V45.5024H113.596V48H113.259V47.5312C113.194 47.7038 113.078 47.8348 112.91 47.9243C112.744 48.0138 112.568 48.0586 112.383 48.0586C112.277 48.0586 112.181 48.0456 112.095 48.0195C112.01 47.9951 111.939 47.9634 111.882 47.9243C111.827 47.8836 111.778 47.8324 111.736 47.7705C111.695 47.707 111.663 47.6452 111.641 47.585C111.619 47.5247 111.602 47.4539 111.589 47.3726C111.576 47.2896 111.568 47.2171 111.565 47.1553C111.562 47.0918 111.56 47.0186 111.56 46.9355V45.5024H111.907V47.0088C111.907 47.266 111.947 47.4604 112.026 47.5923C112.106 47.7225 112.245 47.7876 112.444 47.7876C112.566 47.7876 112.676 47.7673 112.773 47.7266C112.871 47.6859 112.948 47.6354 113.005 47.5752C113.064 47.5133 113.112 47.4434 113.149 47.3652C113.188 47.2855 113.215 47.2106 113.228 47.1406C113.242 47.069 113.25 47.0007 113.25 46.9355ZM115.444 47.6948L115.503 47.9219C115.381 48 115.238 48.0391 115.073 48.0391C114.858 48.0391 114.702 47.974 114.604 47.8438C114.508 47.7119 114.46 47.4995 114.46 47.2065V45.7441H114.087V45.5024H114.482V44.7041L114.807 44.6138V45.5024H115.354V45.7441H114.807V47.3628C114.807 47.6395 114.919 47.7778 115.144 47.7778C115.219 47.7778 115.319 47.7502 115.444 47.6948ZM118.486 47.4653V46.7671L118.247 46.8037C118.118 46.8232 118.014 46.8411 117.932 46.8574C117.851 46.8721 117.766 46.8908 117.678 46.9136C117.59 46.9347 117.521 46.9583 117.471 46.9844C117.42 47.0088 117.373 47.0389 117.329 47.0747C117.287 47.1089 117.257 47.1488 117.239 47.1943C117.221 47.2399 117.212 47.2928 117.212 47.353C117.212 47.6655 117.367 47.8218 117.676 47.8218C117.935 47.8218 118.205 47.703 118.486 47.4653ZM118.547 48L118.506 47.7168C118.228 47.9447 117.931 48.0586 117.615 48.0586C117.406 48.0586 117.232 48.0016 117.092 47.8877C116.954 47.7721 116.885 47.6102 116.885 47.4019C116.885 47.314 116.898 47.235 116.924 47.165C116.951 47.0934 116.983 47.0332 117.019 46.9844C117.055 46.9339 117.111 46.8883 117.188 46.8477C117.264 46.8053 117.331 46.7728 117.388 46.75C117.446 46.7256 117.533 46.7012 117.649 46.6768C117.764 46.6507 117.857 46.632 117.927 46.6206C117.997 46.6076 118.103 46.5905 118.245 46.5693L118.486 46.5327V46.4302C118.486 46.1584 118.442 45.972 118.352 45.8711C118.263 45.7686 118.11 45.7173 117.896 45.7173C117.756 45.7173 117.624 45.7441 117.5 45.7979C117.378 45.8516 117.276 45.9289 117.195 46.0298C117.195 46.0282 117.126 45.9622 116.987 45.832C117.188 45.5781 117.497 45.4512 117.915 45.4512C118.527 45.4512 118.833 45.7531 118.833 46.3569V48H118.547ZM119.465 48V45.5024H119.802C119.802 45.522 119.802 45.548 119.802 45.5806C119.802 45.6131 119.802 45.6644 119.802 45.7344C119.802 45.8027 119.802 45.8597 119.802 45.9053V45.9736C119.833 45.8841 119.881 45.8052 119.946 45.7368C120.011 45.6668 120.085 45.6123 120.166 45.5732C120.249 45.5326 120.334 45.5024 120.42 45.4829C120.506 45.4618 120.592 45.4512 120.676 45.4512C120.772 45.4512 120.859 45.4601 120.938 45.478C121.017 45.4959 121.085 45.5228 121.14 45.5586C121.195 45.5928 121.244 45.631 121.287 45.6733C121.329 45.714 121.363 45.7645 121.389 45.8247C121.415 45.8849 121.436 45.9427 121.453 45.998C121.471 46.0518 121.484 46.1152 121.492 46.1885C121.5 46.2617 121.505 46.326 121.506 46.3813C121.51 46.4367 121.511 46.501 121.511 46.5742V48H121.165V46.5278C121.165 46.4237 121.16 46.3325 121.15 46.2544C121.142 46.1763 121.125 46.103 121.101 46.0347C121.077 45.9663 121.044 45.911 121.003 45.8687C120.964 45.8247 120.913 45.7905 120.85 45.7661C120.788 45.7417 120.714 45.7295 120.627 45.7295C120.502 45.7295 120.391 45.7474 120.295 45.7832C120.201 45.819 120.123 45.8678 120.061 45.9297C120.001 45.9915 119.952 46.068 119.915 46.1592C119.877 46.2503 119.85 46.3464 119.834 46.4473C119.819 46.5465 119.812 46.658 119.812 46.7817V48H119.465ZM122.847 47.8438L121.89 45.5024H122.246C122.246 45.5024 122.292 45.6221 122.385 45.8613C122.478 46.099 122.59 46.3846 122.72 46.7183C122.85 47.0519 122.951 47.3075 123.022 47.4849C123.162 47.1203 123.42 46.4595 123.796 45.5024H124.138C124.026 45.7873 123.864 46.1909 123.652 46.7134C123.442 47.2358 123.302 47.5858 123.232 47.7632C123.174 47.9113 123.123 48.0309 123.079 48.1221C123.036 48.2148 122.985 48.3076 122.925 48.4004C122.865 48.4932 122.803 48.564 122.739 48.6128C122.677 48.6632 122.603 48.7039 122.515 48.7349C122.427 48.7658 122.328 48.7812 122.219 48.7812C122.133 48.7812 122.048 48.7699 121.963 48.7471L122 48.4712C122.074 48.4826 122.146 48.4883 122.214 48.4883C122.489 48.4883 122.681 48.328 122.791 48.0073L122.847 47.8438ZM127.366 45.9346C127.208 46.0241 127.129 46.0697 127.129 46.0713C127.074 45.9443 126.996 45.8532 126.897 45.7979C126.798 45.7409 126.667 45.7124 126.504 45.7124C126.302 45.7124 126.149 45.749 126.045 45.8223C125.941 45.8955 125.889 46.0037 125.889 46.147C125.889 46.2039 125.899 46.2544 125.92 46.2983C125.943 46.3423 125.972 46.3789 126.006 46.4082C126.042 46.4359 126.09 46.4619 126.15 46.4863C126.21 46.5091 126.268 46.527 126.323 46.54C126.38 46.5531 126.451 46.5677 126.536 46.584C126.819 46.6361 127.031 46.7174 127.173 46.8281C127.316 46.9372 127.388 47.0951 127.388 47.3018C127.388 47.5475 127.306 47.7355 127.141 47.8657C126.977 47.9943 126.729 48.0586 126.399 48.0586C126.3 48.0586 126.204 48.048 126.111 48.0269C126.02 48.0073 125.931 47.9756 125.845 47.9316C125.76 47.8861 125.685 47.8226 125.62 47.7412C125.555 47.6582 125.507 47.5614 125.476 47.4507L125.74 47.3433C125.798 47.5028 125.88 47.6183 125.984 47.6899C126.088 47.7616 126.237 47.7974 126.431 47.7974C126.859 47.7974 127.073 47.6541 127.073 47.3677C127.073 47.2114 127.024 47.1016 126.926 47.0381C126.829 46.973 126.623 46.9079 126.309 46.8428C126.214 46.8232 126.134 46.8037 126.069 46.7842C126.006 46.763 125.939 46.7345 125.869 46.6987C125.801 46.6629 125.745 46.6222 125.703 46.5767C125.662 46.5295 125.628 46.4692 125.601 46.396C125.575 46.3228 125.562 46.2381 125.562 46.1421C125.562 45.9224 125.646 45.7523 125.815 45.6318C125.986 45.5114 126.209 45.4512 126.484 45.4512C126.706 45.4512 126.886 45.4878 127.026 45.561C127.166 45.6343 127.279 45.7588 127.366 45.9346ZM129.033 47.6948L129.092 47.9219C128.97 48 128.826 48.0391 128.662 48.0391C128.447 48.0391 128.291 47.974 128.193 47.8438C128.097 47.7119 128.049 47.4995 128.049 47.2065V45.7441H127.676V45.5024H128.071V44.7041L128.396 44.6138V45.5024H128.943V45.7441H128.396V47.3628C128.396 47.6395 128.508 47.7778 128.733 47.7778C128.808 47.7778 128.908 47.7502 129.033 47.6948ZM130.977 47.4653V46.7671L130.737 46.8037C130.609 46.8232 130.504 46.8411 130.422 46.8574C130.341 46.8721 130.256 46.8908 130.168 46.9136C130.081 46.9347 130.011 46.9583 129.961 46.9844C129.91 47.0088 129.863 47.0389 129.819 47.0747C129.777 47.1089 129.747 47.1488 129.729 47.1943C129.711 47.2399 129.702 47.2928 129.702 47.353C129.702 47.6655 129.857 47.8218 130.166 47.8218C130.425 47.8218 130.695 47.703 130.977 47.4653ZM131.038 48L130.996 47.7168C130.718 47.9447 130.421 48.0586 130.105 48.0586C129.897 48.0586 129.722 48.0016 129.583 47.8877C129.444 47.7721 129.375 47.6102 129.375 47.4019C129.375 47.314 129.388 47.235 129.414 47.165C129.442 47.0934 129.473 47.0332 129.509 46.9844C129.545 46.9339 129.601 46.8883 129.678 46.8477C129.754 46.8053 129.821 46.7728 129.878 46.75C129.937 46.7256 130.024 46.7012 130.139 46.6768C130.255 46.6507 130.347 46.632 130.417 46.6206C130.487 46.6076 130.593 46.5905 130.735 46.5693L130.977 46.5327V46.4302C130.977 46.1584 130.932 45.972 130.842 45.8711C130.753 45.7686 130.601 45.7173 130.386 45.7173C130.246 45.7173 130.114 45.7441 129.99 45.7979C129.868 45.8516 129.766 45.9289 129.685 46.0298C129.685 46.0282 129.616 45.9622 129.478 45.832C129.678 45.5781 129.987 45.4512 130.405 45.4512C131.017 45.4512 131.323 45.7531 131.323 46.3569V48H131.038ZM131.975 44.9678V44.5308H132.319V44.9678H131.975ZM131.98 48V45.5024H132.327V48H131.98ZM132.957 48V45.5024H133.293C133.293 45.522 133.293 45.548 133.293 45.5806C133.293 45.6131 133.293 45.6644 133.293 45.7344C133.293 45.8027 133.293 45.8597 133.293 45.9053V45.9736C133.324 45.8841 133.372 45.8052 133.438 45.7368C133.503 45.6668 133.576 45.6123 133.657 45.5732C133.74 45.5326 133.825 45.5024 133.911 45.4829C133.997 45.4618 134.083 45.4512 134.167 45.4512C134.264 45.4512 134.351 45.4601 134.429 45.478C134.508 45.4959 134.576 45.5228 134.631 45.5586C134.687 45.5928 134.736 45.631 134.778 45.6733C134.82 45.714 134.854 45.7645 134.88 45.8247C134.906 45.8849 134.928 45.9427 134.944 45.998C134.962 46.0518 134.975 46.1152 134.983 46.1885C134.991 46.2617 134.996 46.326 134.998 46.3813C135.001 46.4367 135.002 46.501 135.002 46.5742V48H134.656V46.5278C134.656 46.4237 134.651 46.3325 134.641 46.2544C134.633 46.1763 134.617 46.103 134.592 46.0347C134.568 45.9663 134.535 45.911 134.495 45.8687C134.456 45.8247 134.404 45.7905 134.341 45.7661C134.279 45.7417 134.205 45.7295 134.119 45.7295C133.993 45.7295 133.883 45.7474 133.787 45.7832C133.692 45.819 133.614 45.8678 133.552 45.9297C133.492 45.9915 133.443 46.068 133.406 46.1592C133.368 46.2503 133.341 46.3464 133.325 46.4473C133.311 46.5465 133.303 46.658 133.303 46.7817V48H132.957ZM137.351 45.9346C137.193 46.0241 137.114 46.0697 137.114 46.0713C137.059 45.9443 136.982 45.8532 136.882 45.7979C136.783 45.7409 136.652 45.7124 136.489 45.7124C136.287 45.7124 136.134 45.749 136.03 45.8223C135.926 45.8955 135.874 46.0037 135.874 46.147C135.874 46.2039 135.885 46.2544 135.906 46.2983C135.929 46.3423 135.957 46.3789 135.991 46.4082C136.027 46.4359 136.075 46.4619 136.135 46.4863C136.195 46.5091 136.253 46.527 136.309 46.54C136.366 46.5531 136.436 46.5677 136.521 46.584C136.804 46.6361 137.017 46.7174 137.158 46.8281C137.301 46.9372 137.373 47.0951 137.373 47.3018C137.373 47.5475 137.291 47.7355 137.126 47.8657C136.962 47.9943 136.715 48.0586 136.384 48.0586C136.285 48.0586 136.189 48.048 136.096 48.0269C136.005 48.0073 135.916 47.9756 135.83 47.9316C135.745 47.8861 135.671 47.8226 135.605 47.7412C135.54 47.6582 135.492 47.5614 135.461 47.4507L135.725 47.3433C135.784 47.5028 135.865 47.6183 135.969 47.6899C136.073 47.7616 136.222 47.7974 136.416 47.7974C136.844 47.7974 137.058 47.6541 137.058 47.3677C137.058 47.2114 137.009 47.1016 136.912 47.0381C136.814 46.973 136.608 46.9079 136.294 46.8428C136.2 46.8232 136.12 46.8037 136.055 46.7842C135.991 46.763 135.924 46.7345 135.854 46.6987C135.786 46.6629 135.731 46.6222 135.688 46.5767C135.648 46.5295 135.614 46.4692 135.586 46.396C135.56 46.3228 135.547 46.2381 135.547 46.1421C135.547 45.9224 135.632 45.7523 135.801 45.6318C135.972 45.5114 136.195 45.4512 136.47 45.4512C136.691 45.4512 136.872 45.4878 137.012 45.561C137.152 45.6343 137.265 45.7588 137.351 45.9346Z" fill="white"/>
<defs>
<filter id="filter0_b_356_13" x="9" y="-4" width="193" height="191" filterUnits="userSpaceOnUse" color-interpolation-filters="sRGB">
<feFlood flood-opacity="0" result="BackgroundImageFix"/>
<feGaussianBlur in="BackgroundImageFix" stdDeviation="2"/>
<feComposite in2="SourceAlpha" operator="in" result="effect1_backgroundBlur_356_13"/>
<feBlend mode="normal" in="SourceGraphic" in2="effect1_backgroundBlur_356_13" result="shape"/>
</filter>
<filter id="filter1_d_356_13" x="53" y="60.2456" width="48.6675" height="45.3602" filterUnits="userSpaceOnUse" color-interpolation-filters="sRGB">
<feFlood flood-opacity="0" result="BackgroundImageFix"/>
<feColorMatrix in="SourceAlpha" type="matrix" values="0 0 0 0 0 0 0 0 0 0 0 0 0 0 0 0 0 0 127 0" result="hardAlpha"/>
<feOffset dy="4"/>
<feGaussianBlur stdDeviation="2"/>
<feComposite in2="hardAlpha" operator="out"/>
<feColorMatrix type="matrix" values="0 0 0 0 0 0 0 0 0 0 0 0 0 0 0 0 0 0 1 0"/>
<feBlend mode="normal" in2="BackgroundImageFix" result="effect1_dropShadow_356_13"/>
<feBlend mode="normal" in="SourceGraphic" in2="effect1_dropShadow_356_13" result="shape"/>
</filter>
<filter id="filter2_d_356_13" x="68" y="173" width="75" height="28" filterUnits="userSpaceOnUse" color-interpolation-filters="sRGB">
<feFlood flood-opacity="0" result="BackgroundImageFix"/>
<feColorMatrix in="SourceAlpha" type="matrix" values="0 0 0 0 0 0 0 0 0 0 0 0 0 0 0 0 0 0 127 0" result="hardAlpha"/>
<feOffset dy="4"/>
<feGaussianBlur stdDeviation="2"/>
<feComposite in2="hardAlpha" operator="out"/>
<feColorMatrix type="matrix" values="0 0 0 0 0 0 0 0 0 0 0 0 0 0 0 0 0 0 0.25 0"/>
<feBlend mode="normal" in2="BackgroundImageFix" result="effect1_dropShadow_356_13"/>
<feBlend mode="normal" in="SourceGraphic" in2="effect1_dropShadow_356_13" result="shape"/>
</filter>
<filter id="filter3_d_356_13" x="53.1055" y="50" width="137.159" height="109.3" filterUnits="userSpaceOnUse" color-interpolation-filters="sRGB">
<feFlood flood-opacity="0" result="BackgroundImageFix"/>
<feColorMatrix in="SourceAlpha" type="matrix" values="0 0 0 0 0 0 0 0 0 0 0 0 0 0 0 0 0 0 127 0" result="hardAlpha"/>
<feOffset dy="4"/>
<feGaussianBlur stdDeviation="2"/>
<feComposite in2="hardAlpha" operator="out"/>
<feColorMatrix type="matrix" values="0 0 0 0 0.0883334 0 0 0 0 0.025175 0 0 0 0 0.025175 0 0 0 0.9 0"/>
<feBlend mode="normal" in2="BackgroundImageFix" result="effect1_dropShadow_356_13"/>
<feBlend mode="normal" in="SourceGraphic" in2="effect1_dropShadow_356_13" result="shape"/>
</filter>
<linearGradient id="paint0_linear_356_13" x1="107" y1="177" x2="107" y2="190" gradientUnits="userSpaceOnUse">
<stop offset="0.208333" stop-color="#371E1E"/>
<stop offset="0.255208" stop-color="#371E1E"/>
<stop offset="1" stop-opacity="0"/>
</linearGradient>
</defs>
</svg>
