<svg width="250" height="119" viewBox="0 0 250 119" fill="none" xmlns="http://www.w3.org/2000/svg">
<path d="M18.6206 77H12.3902C12.2469 77 12.1753 76.9105 12.1753 76.7314L12.229 38.9458C12.229 38.8026 12.3185 38.731 12.4976 38.731H18.6206C18.7997 38.731 18.8892 38.8026 18.8892 38.9458L18.8355 53.9043H27.0801V38.9458C27.0801 38.8026 27.1517 38.731 27.2949 38.731H33.418C33.597 38.731 33.6865 38.8026 33.6865 38.9458L33.794 76.7314C33.794 76.9105 33.7044 77 33.5254 77H27.3486C27.1696 77 27.0801 76.9105 27.0801 76.7314V60.5645H18.8355V76.7314C18.8355 76.9105 18.7638 77 18.6206 77ZM49.7461 77H43.4351C43.3097 77 43.2471 76.9284 43.2471 76.7852L43.3008 61.1553L35.9424 38.9458C35.9066 38.8026 35.9603 38.731 36.1035 38.731H42.2266C42.4056 38.731 42.513 38.8026 42.5488 38.9458L46.604 53.7432L50.7398 38.9458C50.7756 38.8026 50.8651 38.731 51.0083 38.731H57.1851C57.3283 38.731 57.382 38.8026 57.3462 38.9458L49.9072 60.9404L49.961 76.7852C49.961 76.9284 49.8893 77 49.7461 77ZM66.7993 77H60.6226C60.4435 77 60.354 76.9105 60.354 76.7314L60.4614 38.9458C60.4614 38.8026 60.5331 38.731 60.6763 38.731H71.2573C74.6232 38.731 77.2819 39.7604 79.2334 41.8193C81.2028 43.8604 82.1875 46.6444 82.1875 50.1714C82.1875 52.7495 81.6773 54.9964 80.6568 56.9121C79.6183 58.8099 78.2756 60.278 76.6284 61.3164C74.9813 62.3548 73.1909 62.874 71.2573 62.874H67.0679V76.7314C67.0679 76.9105 66.9784 77 66.7993 77ZM71.2573 45.2568L67.0679 45.3105V56.2139H71.2573C72.4211 56.2139 73.4326 55.6589 74.292 54.5488C75.1514 53.4209 75.5811 51.9618 75.5811 50.1714C75.5811 48.7391 75.1961 47.5664 74.4263 46.6533C73.6564 45.7223 72.6001 45.2568 71.2573 45.2568ZM103.914 77H86.1353C85.992 77 85.9204 76.9105 85.9204 76.7314L85.9741 38.9458C85.9741 38.8026 86.0458 38.731 86.189 38.731H103.86C104.003 38.731 104.075 38.8205 104.075 38.9995V45.1494C104.075 45.2926 104.003 45.3643 103.86 45.3643H92.5806V53.958H103.86C104.003 53.958 104.075 54.0296 104.075 54.1729L104.128 60.4033C104.128 60.5465 104.057 60.6182 103.914 60.6182H92.5806V70.2324H103.914C104.057 70.2324 104.128 70.3219 104.128 70.501V76.7852C104.128 76.9284 104.057 77 103.914 77ZM133.428 77.5371C131.44 77.5371 129.623 77.0358 127.976 76.0332C126.347 75.0306 125.049 73.6878 124.082 72.0049C123.133 70.304 122.659 68.4152 122.659 66.3384L122.712 49.1777C122.712 47.1367 123.178 45.2926 124.109 43.6455C125.04 41.9805 126.32 40.6466 127.949 39.644C129.596 38.6235 131.423 38.1133 133.428 38.1133C135.469 38.1133 137.286 38.6056 138.879 39.5903C140.491 40.575 141.771 41.9089 142.72 43.5918C143.687 45.2568 144.17 47.1188 144.17 49.1777V51.7021C144.17 51.8454 144.098 51.917 143.955 51.917H137.778C137.635 51.917 137.563 51.8454 137.563 51.7021V49.1777C137.563 47.9603 137.17 46.9129 136.382 46.0356C135.594 45.1584 134.609 44.7197 133.428 44.7197C132.121 44.7197 131.118 45.1673 130.42 46.0625C129.722 46.9577 129.373 47.9961 129.373 49.1777V66.3384C129.373 67.6812 129.766 68.7822 130.554 69.6416C131.342 70.4831 132.3 70.9038 133.428 70.9038C134.609 70.9038 135.594 70.4383 136.382 69.5073C137.17 68.5584 137.563 67.5021 137.563 66.3384V63.7871C137.563 63.6439 137.635 63.5723 137.778 63.5723H144.009C144.152 63.5723 144.224 63.6439 144.224 63.7871V66.3384C144.224 68.3973 143.74 70.2772 142.773 71.978C141.789 73.661 140.491 75.0127 138.879 76.0332C137.268 77.0358 135.451 77.5371 133.428 77.5371ZM166.218 77H148.44C148.297 77 148.225 76.9105 148.225 76.7314L148.279 38.9995C148.279 38.8205 148.368 38.731 148.547 38.731H154.67C154.849 38.731 154.939 38.8205 154.939 38.9995L154.885 70.2324H166.218C166.397 70.2324 166.487 70.3219 166.487 70.501V76.7314C166.487 76.9105 166.397 77 166.218 77ZM188.079 77H170.3C170.157 77 170.085 76.9105 170.085 76.7314L170.139 38.9458C170.139 38.8026 170.211 38.731 170.354 38.731H188.025C188.168 38.731 188.24 38.8205 188.24 38.9995V45.1494C188.24 45.2926 188.168 45.3643 188.025 45.3643H176.746V53.958H188.025C188.168 53.958 188.24 54.0296 188.24 54.1729L188.293 60.4033C188.293 60.5465 188.222 60.6182 188.079 60.6182H176.746V70.2324H188.079C188.222 70.2324 188.293 70.3219 188.293 70.501V76.7852C188.293 76.9284 188.222 77 188.079 77ZM191.328 76.7314L198.149 38.9458C198.185 38.8026 198.275 38.731 198.418 38.731H206.394C206.537 38.731 206.627 38.8026 206.663 38.9458L213.215 76.7314C213.233 76.9105 213.162 77 213.001 77H206.904C206.725 77 206.627 76.9105 206.609 76.7314L206.018 72.7031H198.525L197.935 76.7314C197.917 76.9105 197.827 77 197.666 77H191.543C191.4 77 191.328 76.9105 191.328 76.7314ZM202.097 51.3799L199.626 66.8218H204.917L202.661 51.3799L202.339 49.3389L202.097 51.3799ZM222.642 77H217.136C216.85 77 216.707 76.8747 216.707 76.624L216.653 39.1606C216.653 38.8742 216.796 38.731 217.083 38.731H222.051L231.343 60.4033L231.074 39.1606C231.074 38.8742 231.235 38.731 231.558 38.731H237.009C237.224 38.731 237.332 38.8742 237.332 39.1606L237.385 76.6777C237.385 76.8926 237.296 77 237.117 77H232.283L222.749 56.751L223.152 76.5703C223.152 76.8568 222.982 77 222.642 77Z" fill="white"/>
<path d="M18.0659 84.0977V83.27H26.1299V84.0977H22.6582V94H21.5376V84.0977H18.0659ZM36.5797 86.1265C36.5797 86.8589 36.3893 87.4546 36.0085 87.9136C35.6325 88.3677 35.0514 88.6997 34.2653 88.9097L36.7555 94H35.6129L33.1813 89.0708H29.8341V94H28.7721V83.2773H32.6466C34.0382 83.2773 35.0417 83.5093 35.6569 83.9731C36.2721 84.4321 36.5797 85.1499 36.5797 86.1265ZM29.8341 84.0684V88.2432H32.4049C32.7565 88.2432 33.0641 88.231 33.3278 88.2065C33.5963 88.1821 33.8722 88.126 34.1554 88.0381C34.4435 87.9502 34.6779 87.833 34.8586 87.6865C35.0441 87.54 35.1955 87.3374 35.3127 87.0786C35.4298 86.8149 35.4884 86.5024 35.4884 86.1411C35.4884 85.77 35.4323 85.4551 35.32 85.1963C35.2077 84.9326 35.0661 84.73 34.8952 84.5884C34.7292 84.4419 34.507 84.3296 34.2287 84.2515C33.9552 84.1685 33.6989 84.1172 33.4596 84.0977C33.2204 84.0781 32.9274 84.0684 32.5807 84.0684H29.8341ZM39.493 89.7959V83.2773H40.6648V89.6201C40.6648 90.0791 40.6868 90.4819 40.7308 90.8286C40.7747 91.1753 40.8602 91.5098 40.9871 91.832C41.1141 92.1494 41.2825 92.4106 41.4925 92.6157C41.7024 92.8208 41.9783 92.9844 42.3201 93.1064C42.6668 93.2236 43.0745 93.2822 43.5433 93.2822C44.012 93.2822 44.4173 93.2236 44.7591 93.1064C45.1009 92.9844 45.3743 92.8208 45.5794 92.6157C45.7894 92.4106 45.9554 92.1494 46.0774 91.832C46.2044 91.5098 46.2898 91.1753 46.3338 90.8286C46.3777 90.4819 46.3997 90.0791 46.3997 89.6201V83.2773H47.5496V89.7446C47.5496 91.2729 47.22 92.396 46.5608 93.1138C45.9017 93.8267 44.8811 94.1831 43.4993 94.1831C42.1517 94.1831 41.1458 93.834 40.4817 93.1357C39.8226 92.4326 39.493 91.3193 39.493 89.7959ZM54.4619 83.1455C55.3261 83.1455 56.0561 83.2896 56.6518 83.5776C57.2524 83.8657 57.7651 84.3345 58.1899 84.9839L57.3989 85.5698C57.1108 85.062 56.7226 84.6763 56.2343 84.4126C55.746 84.144 55.2065 84.0098 54.6157 84.0098C53.8491 84.0098 53.2241 84.1514 52.7407 84.4346C52.2573 84.7178 52.0156 85.1523 52.0156 85.7383C52.0156 85.9678 52.0668 86.1777 52.1694 86.3682C52.2719 86.5586 52.394 86.7148 52.5356 86.8369C52.6821 86.959 52.8749 87.0786 53.1142 87.1958C53.3583 87.313 53.5756 87.4033 53.7661 87.4668C53.9614 87.5303 54.2031 87.6084 54.4911 87.7012C54.7792 87.7939 55.0014 87.8696 55.1577 87.9282C55.4848 88.0552 55.7534 88.1626 55.9633 88.2505C56.1733 88.3335 56.4052 88.4385 56.6591 88.5654C56.913 88.6924 57.1181 88.812 57.2744 88.9243C57.4306 89.0317 57.5893 89.1636 57.7504 89.3198C57.9116 89.4761 58.0336 89.6396 58.1166 89.8105C58.2045 89.9814 58.2753 90.1792 58.329 90.4038C58.3876 90.6235 58.4169 90.8628 58.4169 91.1216C58.4169 92.0835 58.0556 92.8354 57.3329 93.3774C56.6152 93.9146 55.6508 94.1831 54.4399 94.1831C54.0932 94.1831 53.749 94.1538 53.4072 94.0952C53.0702 94.0366 52.726 93.9365 52.3744 93.7949C52.0278 93.6533 51.7153 93.4751 51.4369 93.2603C51.1586 93.0454 50.912 92.7671 50.6972 92.4253C50.4872 92.0835 50.3432 91.6978 50.2651 91.2681L51.166 90.8799C51.3857 91.6855 51.769 92.2837 52.3159 92.6743C52.8676 93.0649 53.5976 93.2603 54.5058 93.2603C54.7841 93.2603 55.0502 93.2407 55.3041 93.2017C55.558 93.1577 55.8071 93.0845 56.0512 92.9819C56.3002 92.8794 56.5151 92.7524 56.6957 92.6011C56.8764 92.4448 57.0204 92.2446 57.1279 92.0005C57.2402 91.7515 57.2963 91.4707 57.2963 91.1582C57.2963 90.958 57.2695 90.7749 57.2158 90.6089C57.162 90.4429 57.1059 90.3013 57.0473 90.1841C56.9887 90.062 56.8715 89.9375 56.6957 89.8105C56.52 89.6836 56.3808 89.5859 56.2783 89.5176C56.1757 89.4443 55.978 89.3491 55.685 89.2319C55.392 89.1147 55.1723 89.0317 55.0258 88.9829C54.8842 88.9292 54.6157 88.834 54.2202 88.6973C54.1567 88.6729 54.1078 88.6558 54.0737 88.646C53.2045 88.3433 52.5991 88.0967 52.2573 87.9062C51.4711 87.4717 51.0244 86.9004 50.9169 86.1924C50.9023 86.0752 50.895 85.9531 50.895 85.8262C50.895 85.3818 50.9951 84.9839 51.1952 84.6323C51.3954 84.2808 51.664 84 52.0009 83.79C52.3427 83.5752 52.7211 83.4141 53.1362 83.3066C53.5561 83.1992 53.998 83.1455 54.4619 83.1455ZM60.3927 84.0977V83.27H68.4566V84.0977H64.9849V94H63.8643V84.0977H60.3927ZM78.2766 94H71.0988V83.2773H78.196V84.0977H72.1682V87.8623H77.4123V88.7046H72.1682V93.1724H78.2766V94ZM84.6615 84.1123H82.0321V93.165H84.2513C85.0082 93.165 85.6405 93.0845 86.1483 92.9233C86.6561 92.7573 87.0663 92.4863 87.3788 92.1104C87.6961 91.7344 87.9208 91.2656 88.0526 90.7041C88.1893 90.1426 88.2577 89.4419 88.2577 88.6021C88.2577 87.8501 88.2015 87.2104 88.0892 86.6831C87.9769 86.1509 87.7865 85.687 87.5179 85.2915C87.2494 84.8911 86.8783 84.5957 86.4046 84.4053C85.9359 84.21 85.3548 84.1123 84.6615 84.1123ZM80.9627 83.2773H84.6542C85.4305 83.2773 86.0995 83.3701 86.661 83.5557C87.2225 83.7363 87.7035 84.0342 88.1039 84.4492C88.5091 84.8594 88.8094 85.4087 89.0047 86.0972C89.2049 86.7808 89.305 87.6133 89.305 88.5947C89.305 89.8936 89.1341 90.9409 88.7923 91.7368C88.4505 92.5327 87.9378 93.1089 87.2543 93.4653C86.5755 93.8218 85.6918 94 84.6029 94H80.9627V83.2773ZM104.023 94H97.4826V83.2773H98.5519V93.1724H104.023V94ZM105.545 94L109.104 83.2773H110.511L114.085 94H112.986L112.005 91.0776H107.552L106.614 94H105.545ZM109.771 84.0244C109.698 84.249 109.575 84.6372 109.405 85.189C109.239 85.7358 109.116 86.1338 109.038 86.3828L107.801 90.2793H111.756L110.511 86.3755C110.227 85.4966 109.981 84.7129 109.771 84.0244ZM116.661 89.7959V83.2773H117.833V89.6201C117.833 90.0791 117.855 90.4819 117.899 90.8286C117.943 91.1753 118.028 91.5098 118.155 91.832C118.282 92.1494 118.451 92.4106 118.661 92.6157C118.871 92.8208 119.146 92.9844 119.488 93.1064C119.835 93.2236 120.243 93.2822 120.711 93.2822C121.18 93.2822 121.585 93.2236 121.927 93.1064C122.269 92.9844 122.542 92.8208 122.747 92.6157C122.957 92.4106 123.123 92.1494 123.246 91.832C123.372 91.5098 123.458 91.1753 123.502 90.8286C123.546 90.4819 123.568 90.0791 123.568 89.6201V83.2773H124.718V89.7446C124.718 91.2729 124.388 92.396 123.729 93.1138C123.07 93.8267 122.049 94.1831 120.667 94.1831C119.32 94.1831 118.314 93.834 117.65 93.1357C116.991 92.4326 116.661 91.3193 116.661 89.7959ZM128.188 94V83.2773H129.381L135.995 92.3813V89.5029V83.2773H136.94V94H135.973L129.162 84.5518C129.162 84.5518 129.162 85.5649 129.162 87.5913V94H128.188ZM144.299 84.1123H141.67V93.165H143.889C144.646 93.165 145.278 93.0845 145.786 92.9233C146.294 92.7573 146.704 92.4863 147.016 92.1104C147.334 91.7344 147.558 91.2656 147.69 90.7041C147.827 90.1426 147.895 89.4419 147.895 88.6021C147.895 87.8501 147.839 87.2104 147.727 86.6831C147.614 86.1509 147.424 85.687 147.155 85.2915C146.887 84.8911 146.516 84.5957 146.042 84.4053C145.573 84.21 144.992 84.1123 144.299 84.1123ZM140.6 83.2773H144.292C145.068 83.2773 145.737 83.3701 146.299 83.5557C146.86 83.7363 147.341 84.0342 147.741 84.4492C148.147 84.8594 148.447 85.4087 148.642 86.0972C148.842 86.7808 148.943 87.6133 148.943 88.5947C148.943 89.8936 148.772 90.9409 148.43 91.7368C148.088 92.5327 147.575 93.1089 146.892 93.4653C146.213 93.8218 145.329 94 144.24 94H140.6V83.2773ZM160.147 86.1265C160.147 86.8589 159.956 87.4546 159.576 87.9136C159.2 88.3677 158.618 88.6997 157.832 88.9097L160.323 94H159.18L156.748 89.0708H153.401V94H152.339V83.2773H156.214C157.605 83.2773 158.609 83.5093 159.224 83.9731C159.839 84.4321 160.147 85.1499 160.147 86.1265ZM153.401 84.0684V88.2432H155.972C156.324 88.2432 156.631 88.231 156.895 88.2065C157.163 88.1821 157.439 88.126 157.722 88.0381C158.011 87.9502 158.245 87.833 158.426 87.6865C158.611 87.54 158.763 87.3374 158.88 87.0786C158.997 86.8149 159.055 86.5024 159.055 86.1411C159.055 85.77 158.999 85.4551 158.887 85.1963C158.775 84.9326 158.633 84.73 158.462 84.5884C158.296 84.4419 158.074 84.3296 157.796 84.2515C157.522 84.1685 157.266 84.1172 157.027 84.0977C156.787 84.0781 156.494 84.0684 156.148 84.0684H153.401ZM165.88 89.979L162.13 83.2773H163.287L166.422 89.0049L169.549 83.2773H170.699L166.949 89.9863V94H165.88V89.979ZM181.462 83.1455C182.326 83.1455 183.056 83.2896 183.652 83.5776C184.253 83.8657 184.765 84.3345 185.19 84.9839L184.399 85.5698C184.111 85.062 183.723 84.6763 183.235 84.4126C182.746 84.144 182.207 84.0098 181.616 84.0098C180.849 84.0098 180.224 84.1514 179.741 84.4346C179.258 84.7178 179.016 85.1523 179.016 85.7383C179.016 85.9678 179.067 86.1777 179.17 86.3682C179.272 86.5586 179.394 86.7148 179.536 86.8369C179.682 86.959 179.875 87.0786 180.115 87.1958C180.359 87.313 180.576 87.4033 180.766 87.4668C180.962 87.5303 181.203 87.6084 181.491 87.7012C181.78 87.7939 182.002 87.8696 182.158 87.9282C182.485 88.0552 182.754 88.1626 182.964 88.2505C183.174 88.3335 183.406 88.4385 183.659 88.5654C183.913 88.6924 184.118 88.812 184.275 88.9243C184.431 89.0317 184.59 89.1636 184.751 89.3198C184.912 89.4761 185.034 89.6396 185.117 89.8105C185.205 89.9814 185.276 90.1792 185.329 90.4038C185.388 90.6235 185.417 90.8628 185.417 91.1216C185.417 92.0835 185.056 92.8354 184.333 93.3774C183.615 93.9146 182.651 94.1831 181.44 94.1831C181.094 94.1831 180.749 94.1538 180.407 94.0952C180.071 94.0366 179.726 93.9365 179.375 93.7949C179.028 93.6533 178.716 93.4751 178.437 93.2603C178.159 93.0454 177.912 92.7671 177.698 92.4253C177.488 92.0835 177.344 91.6978 177.265 91.2681L178.166 90.8799C178.386 91.6855 178.769 92.2837 179.316 92.6743C179.868 93.0649 180.598 93.2603 181.506 93.2603C181.784 93.2603 182.051 93.2407 182.304 93.2017C182.558 93.1577 182.807 93.0845 183.052 92.9819C183.301 92.8794 183.515 92.7524 183.696 92.6011C183.877 92.4448 184.021 92.2446 184.128 92.0005C184.24 91.7515 184.297 91.4707 184.297 91.1582C184.297 90.958 184.27 90.7749 184.216 90.6089C184.162 90.4429 184.106 90.3013 184.048 90.1841C183.989 90.062 183.872 89.9375 183.696 89.8105C183.52 89.6836 183.381 89.5859 183.279 89.5176C183.176 89.4443 182.978 89.3491 182.685 89.2319C182.392 89.1147 182.173 89.0317 182.026 88.9829C181.885 88.9292 181.616 88.834 181.22 88.6973C181.157 88.6729 181.108 88.6558 181.074 88.646C180.205 88.3433 179.599 88.0967 179.258 87.9062C178.471 87.4717 178.025 86.9004 177.917 86.1924C177.903 86.0752 177.895 85.9531 177.895 85.8262C177.895 85.3818 177.995 84.9839 178.196 84.6323C178.396 84.2808 178.664 84 179.001 83.79C179.343 83.5752 179.721 83.4141 180.136 83.3066C180.556 83.1992 180.998 83.1455 181.462 83.1455ZM195.852 87.877V83.2773H196.914V94H195.852V88.7266H189.48V94H188.411V83.2773H189.48V87.877H195.852ZM204.786 83.0796C205.499 83.0796 206.124 83.1821 206.661 83.3872C207.203 83.5923 207.672 83.9097 208.067 84.3394C208.463 84.769 208.761 85.3403 208.961 86.0532C209.166 86.7612 209.269 87.6011 209.269 88.5728C209.269 90.5259 208.89 91.9492 208.133 92.8428C207.376 93.7363 206.258 94.1831 204.779 94.1831C204.061 94.1831 203.434 94.0806 202.897 93.8755C202.359 93.6704 201.896 93.3481 201.505 92.9087C201.114 92.4692 200.819 91.8882 200.619 91.1655C200.423 90.4429 200.326 89.5811 200.326 88.5801C200.326 87.6035 200.426 86.7612 200.626 86.0532C200.831 85.3403 201.129 84.769 201.52 84.3394C201.91 83.9048 202.374 83.5874 202.911 83.3872C203.453 83.1821 204.078 83.0796 204.786 83.0796ZM204.779 83.9365C204.271 83.9365 203.824 84.0073 203.439 84.1489C203.058 84.2905 202.74 84.4907 202.486 84.7495C202.237 85.0034 202.035 85.3257 201.878 85.7163C201.722 86.1069 201.61 86.5342 201.542 86.998C201.478 87.457 201.446 87.9819 201.446 88.5728C201.446 90.2183 201.7 91.4219 202.208 92.1836C202.716 92.9404 203.575 93.3188 204.786 93.3188C206.002 93.3188 206.864 92.9429 207.372 92.1909C207.879 91.439 208.133 90.2354 208.133 88.5801C208.133 87.9893 208.099 87.4619 208.031 86.998C207.967 86.5342 207.855 86.1069 207.694 85.7163C207.538 85.3257 207.333 85.0034 207.079 84.7495C206.825 84.4907 206.505 84.2905 206.119 84.1489C205.738 84.0073 205.292 83.9365 204.779 83.9365ZM219.858 94H212.68V83.2773H219.777V84.0977H213.749V87.8623H218.993V88.7046H213.749V93.1724H219.858V94ZM225.986 83.1455C226.85 83.1455 227.58 83.2896 228.176 83.5776C228.777 83.8657 229.289 84.3345 229.714 84.9839L228.923 85.5698C228.635 85.062 228.247 84.6763 227.759 84.4126C227.27 84.144 226.731 84.0098 226.14 84.0098C225.373 84.0098 224.748 84.1514 224.265 84.4346C223.782 84.7178 223.54 85.1523 223.54 85.7383C223.54 85.9678 223.591 86.1777 223.694 86.3682C223.796 86.5586 223.918 86.7148 224.06 86.8369C224.206 86.959 224.399 87.0786 224.638 87.1958C224.883 87.313 225.1 87.4033 225.29 87.4668C225.486 87.5303 225.727 87.6084 226.015 87.7012C226.304 87.7939 226.526 87.8696 226.682 87.9282C227.009 88.0552 227.278 88.1626 227.488 88.2505C227.698 88.3335 227.93 88.4385 228.183 88.5654C228.437 88.6924 228.642 88.812 228.799 88.9243C228.955 89.0317 229.114 89.1636 229.275 89.3198C229.436 89.4761 229.558 89.6396 229.641 89.8105C229.729 89.9814 229.8 90.1792 229.853 90.4038C229.912 90.6235 229.941 90.8628 229.941 91.1216C229.941 92.0835 229.58 92.8354 228.857 93.3774C228.139 93.9146 227.175 94.1831 225.964 94.1831C225.617 94.1831 225.273 94.1538 224.931 94.0952C224.595 94.0366 224.25 93.9365 223.899 93.7949C223.552 93.6533 223.24 93.4751 222.961 93.2603C222.683 93.0454 222.436 92.7671 222.221 92.4253C222.012 92.0835 221.867 91.6978 221.789 91.2681L222.69 90.8799C222.91 91.6855 223.293 92.2837 223.84 92.6743C224.392 93.0649 225.122 93.2603 226.03 93.2603C226.308 93.2603 226.575 93.2407 226.828 93.2017C227.082 93.1577 227.331 93.0845 227.576 92.9819C227.825 92.8794 228.039 92.7524 228.22 92.6011C228.401 92.4448 228.545 92.2446 228.652 92.0005C228.764 91.7515 228.821 91.4707 228.821 91.1582C228.821 90.958 228.794 90.7749 228.74 90.6089C228.686 90.4429 228.63 90.3013 228.572 90.1841C228.513 90.062 228.396 89.9375 228.22 89.8105C228.044 89.6836 227.905 89.5859 227.803 89.5176C227.7 89.4443 227.502 89.3491 227.209 89.2319C226.916 89.1147 226.697 89.0317 226.55 88.9829C226.409 88.9292 226.14 88.834 225.744 88.6973C225.681 88.6729 225.632 88.6558 225.598 88.646C224.729 88.3433 224.123 88.0967 223.782 87.9062C222.995 87.4717 222.549 86.9004 222.441 86.1924C222.427 86.0752 222.419 85.9531 222.419 85.8262C222.419 85.3818 222.519 84.9839 222.72 84.6323C222.92 84.2808 223.188 84 223.525 83.79C223.867 83.5752 224.245 83.4141 224.66 83.3066C225.08 83.1992 225.522 83.1455 225.986 83.1455Z" fill="white"/>
</svg>
